<?xml version="1.0" encoding="UTF-8" standalone="no"?><!DOCTYPE svg PUBLIC "-//W3C//DTD SVG 1.1//EN" "http://www.w3.org/Graphics/SVG/1.1/DTD/svg11.dtd"><svg width="100%" height="100%" viewBox="0 0 2255 1680" version="1.1" xmlns="http://www.w3.org/2000/svg" xmlns:xlink="http://www.w3.org/1999/xlink" xml:space="preserve" xmlns:serif="http://www.serif.com/" style="fill-rule:evenodd;clip-rule:evenodd;stroke-linejoin:round;stroke-miterlimit:2;"><g><path d="M64.45,684.112c4.354,0 6.967,-0.583 6.967,-3.191c-0,-1.459 -2.03,-2.038 -4.355,-2.038c-2.904,0 -6.966,-0.287 -12.191,-1.45c-4.934,-1.158 -8.713,-3.775 -8.713,-9.287c0,-4.646 0.292,-8.421 0.875,-13.65l15.092,-113.225l1.167,-0c10.158,21.775 27.579,56.033 30.191,62.129c3.484,8.129 26.417,52.55 33.388,65.904c4.646,8.709 7.546,14.517 10.162,14.517c2.609,-0 4.063,-2.613 10.738,-16.259l63.291,-129.483l1.163,0l17.421,126.292c1.158,8.125 0.287,11.904 -1.454,12.483c-2.034,0.871 -3.192,1.742 -3.192,3.192c0,1.741 1.742,2.612 8.417,3.196c11.616,0.87 51.679,1.45 58.937,1.45c4.063,-0 7.546,-0.871 7.546,-3.192c-0,-1.746 -2.029,-2.038 -4.642,-2.038c-3.775,0 -9.583,-0.287 -18,-2.899c-8.712,-2.617 -11.616,-11.034 -14.229,-29.325l-26.417,-177.675c-0.87,-6.096 -2.612,-9 -5.224,-9c-2.617,-0 -4.067,2.324 -6.388,6.966l-78.967,163.454l-79.262,-161.42c-3.771,-7.546 -5.513,-9 -7.838,-9c-2.321,-0 -4.062,2.612 -4.933,7.549l-28.742,186.963c-1.454,9.875 -3.775,21.2 -11.904,22.938c-4.354,0.87 -6.387,0.87 -8.708,0.87c-2.904,0 -4.646,0.579 -4.646,2.038c-0,2.608 2.321,3.191 5.225,3.191c9.292,0 23.225,-0.87 28.742,-0.87c5.225,-0 18.291,0.87 30.483,0.87Z" style="fill:#0d56a3;fill-rule:nonzero;"/><path d="M508.083,548.821c0,-44.129 0,-52.259 0.58,-61.546c0.579,-10.167 2.904,-15.1 10.741,-16.55c3.483,-0.583 5.225,-0.871 8.417,-0.871c3.487,0 5.229,-0.583 5.229,-2.612c-0,-2.034 -2.033,-2.617 -6.096,-2.617c-11.325,0 -29.616,0.875 -33.1,0.875c-0.287,0 -18.579,-0.875 -33.383,-0.875c-4.067,0 -6.1,0.583 -6.1,2.617c-0,2.029 1.742,2.612 4.937,2.612c3.192,0 8.129,0.288 10.45,0.871c9.584,2.033 11.904,6.679 12.488,16.55c0.579,9.287 0.579,17.417 0.579,61.546l-0,36.292c-0,29.899 -0.875,56.029 -16.842,72c-11.612,11.612 -27.291,15.674 -40.062,15.674c-9.875,0 -23.229,-1.162 -36.292,-11.904c-14.225,-11.608 -22.646,-29.321 -22.646,-71.416l0,-40.646c0,-44.129 0,-52.259 0.584,-61.546c0.579,-10.167 2.9,-15.1 10.737,-16.55c3.483,-0.583 5.229,-0.871 8.421,-0.871c2.904,0 4.646,-0.583 4.646,-2.612c-0,-2.034 -2.033,-2.617 -6.388,-2.617c-10.45,0 -28.741,0.875 -35.708,0.875c-8.712,0 -27,-0.875 -42.388,-0.875c-4.354,0 -6.387,0.583 -6.387,2.617c0,2.029 1.742,2.612 4.933,2.612c4.067,0 9,0.288 11.325,0.871c9.579,2.033 11.904,6.679 12.484,16.55c0.579,9.287 0.579,17.417 0.579,61.546l-0,42.387c-0,42.096 11.033,63.58 25.842,76.938c21.191,19.158 49.062,20.029 64.45,20.029c18.875,0 39.775,-3.196 60.387,-20.904c24.387,-20.9 27.583,-55.158 27.583,-87.383l0,-31.067Z" style="fill:#0d56a3;fill-rule:nonzero;"/><path d="M641.925,551.725l-8.125,-6.096c-24.1,-18.291 -30.775,-28.454 -30.775,-41.808c-0,-17.421 13.062,-29.904 34.546,-29.904c18.871,-0 27.292,8.708 31.646,14.225c6.095,7.55 7.546,16.55 7.546,19.162c-0,3.483 0.874,5.225 2.904,5.225c2.325,0 3.195,-2.321 3.195,-8.708c0,-22.646 1.163,-31.063 1.163,-34.838c0,-2.033 -1.454,-2.904 -4.067,-3.483c-7.546,-2.033 -19.741,-4.937 -38.612,-4.937c-40.354,-0 -67.067,22.937 -67.067,54.87c0,23.517 11.034,43.838 42.971,68.809l13.354,10.45c24.096,18.871 28.454,32.225 28.454,46.45c0,15.391 -12.775,33.1 -38.904,33.1c-18.004,-0 -35.129,-7.842 -41.516,-29.325c-1.455,-4.934 -2.613,-11.034 -2.613,-14.804c0,-2.325 -0.292,-4.938 -2.904,-4.938c-2.325,0 -3.192,3.192 -3.484,7.55c-0.291,4.646 -1.454,22.063 -1.454,38.033c0,6.384 0.875,7.838 5.517,9.871c12.483,5.513 25.55,7.546 42.387,7.546c15.388,0 31.646,-2.612 46.163,-11.9c20.904,-13.646 27.292,-33.683 27.292,-50.521c-0,-27.579 -12.484,-47.612 -47.617,-74.029Z" style="fill:#0d56a3;fill-rule:nonzero;"/><path d="M737.738,469.854c3.483,0 7.258,0.288 10.45,1.158c6.387,1.455 9.291,6.392 9.87,16.263c0.579,9.287 0.579,17.417 0.579,61.546l0,51.096c0,28.162 0,51.1 -1.449,63.291c-0.871,8.417 -2.613,13.354 -8.421,14.517c-2.613,0.579 -6.096,1.158 -10.45,1.158c-3.484,0 -4.646,0.871 -4.646,2.325c-0,2.034 2.033,2.904 5.808,2.904c11.613,0 29.904,-0.87 36.579,-0.87c7.842,-0 26.129,0.87 45.292,0.87c3.192,0 5.513,-0.87 5.513,-2.904c-0,-1.454 -1.451,-2.325 -4.642,-2.325c-4.354,0 -10.742,-0.579 -14.808,-1.158c-8.709,-1.163 -10.742,-6.387 -11.613,-14.225c-1.158,-12.483 -1.158,-35.421 -1.158,-63.583l-0,-51.096c-0,-44.129 -0,-52.259 0.579,-61.546c0.579,-10.167 2.904,-15.1 10.741,-16.55c3.484,-0.583 5.809,-0.871 8.709,-0.871c2.904,0 4.646,-0.583 4.646,-2.904c-0,-1.742 -2.321,-2.325 -6.096,-2.325c-11.034,0 -28.163,0.875 -35.421,0.875c-8.417,0 -26.708,-0.875 -37.742,-0.875c-4.646,0 -6.966,0.583 -6.966,2.325c-0,2.321 1.741,2.904 4.646,2.904Z" style="fill:#0d56a3;fill-rule:nonzero;"/><path d="M865.479,469.854c4.067,0 9,0.288 11.325,0.871c9.579,2.033 11.904,6.679 12.484,16.55c0.579,9.287 0.579,17.417 0.579,61.546l-0,51.096c-0,26.712 -0,49.65 -1.45,61.841c-1.159,8.417 -2.613,14.804 -8.421,15.967c-2.613,0.579 -6.096,1.158 -10.45,1.158c-3.484,0 -4.646,0.871 -4.646,2.325c0,2.034 2.033,2.904 5.808,2.904c11.613,0 29.905,-0.87 36.579,-0.87c7.259,-0 25.55,0.87 41.809,0.87c3.191,0 5.512,-0.87 5.512,-2.904c0,-1.454 -1.45,-2.325 -3.77,-2.325c-3.776,0 -10.163,-0.579 -14.23,-1.158c-7.254,-1.163 -9.87,-7.55 -10.45,-15.675c-0.87,-12.483 -0.87,-35.421 -0.87,-62.133l-0,-26.417l1.45,0l3.195,4.354c6.096,8.421 63.292,75.483 76.067,86.804c12.483,11.034 20.321,17.421 36,18.871c6.092,0.583 11.321,0.583 20.029,0.583l25.259,0c5.516,0 6.966,-0.87 6.966,-2.904c0,-1.746 -1.741,-2.325 -3.771,-2.325c-3.487,0 -9.291,-0.87 -18.008,-4.35c-15.671,-6.095 -28.733,-19.162 -41.508,-31.354c-11.325,-10.746 -68.225,-72.004 -78.68,-85.65c9.871,-10.45 53.713,-54 62.713,-62.708c12.483,-12.196 22.354,-18.292 31.354,-21.775c5.517,-2.034 12.771,-3.192 16.838,-3.192c2.904,0 4.354,-0.583 4.354,-2.612c-0,-2.034 -2.033,-2.617 -4.934,-2.617c-9.004,0 -24.97,0.875 -33.97,0.875c-7.838,0 -23.805,-0.875 -29.9,-0.875c-3.196,0 -4.646,0.583 -4.646,2.617c-0,1.741 1.158,2.321 3.771,2.9c2.904,0.583 4.066,2.616 4.066,5.808c0,4.937 -6.387,12.192 -14.516,21.775c-8.421,9.871 -50.809,53.129 -60.679,63.871l-1.45,-0l-0,-12.775c-0,-44.129 -0,-52.259 0.583,-61.546c0.579,-10.167 2.9,-15.1 10.737,-16.55c3.488,-0.583 5.23,-0.871 8.134,-0.871c2.32,0 4.062,-0.583 4.062,-2.612c0,-2.034 -2.033,-2.617 -6.096,-2.617c-9.871,0 -28.162,0.875 -35.129,0.875c-6.966,0 -25.258,-0.875 -40.646,-0.875c-4.354,0 -6.387,0.583 -6.387,2.617c-0,2.029 1.742,2.612 4.933,2.612Z" style="fill:#0d56a3;fill-rule:nonzero;"/><path d="M1438.01,639.983c-2.033,0 -2.612,1.159 -3.191,4.355c-2.034,11.904 -5.517,17.999 -13.063,21.483c-7.554,3.483 -19.746,3.483 -27.296,3.483c-29.612,0 -34.254,-4.354 -34.833,-24.387c-0.292,-8.417 -0,-35.13 -0,-45l-0,-22.934c-0,-1.741 0.287,-2.904 1.737,-2.904c6.971,0 35.713,0.292 41.23,0.871c10.737,1.158 14.804,5.517 16.254,11.325c0.871,3.771 0.871,7.546 1.162,10.45c0,1.45 0.58,2.613 2.617,2.613c2.608,-0 2.608,-3.196 2.608,-5.517c0,-2.034 0.871,-13.646 1.163,-19.45c1.162,-14.808 2.325,-19.454 2.325,-21.196c-0,-1.742 -0.871,-2.321 -2.038,-2.321c-1.45,0 -2.608,1.45 -4.641,3.771c-2.613,2.904 -6.967,3.779 -13.938,4.358c-6.679,0.58 -40.062,0.58 -46.45,0.58c-1.742,-0 -2.029,-1.159 -2.029,-3.192l-0,-73.454c-0,-2.03 0.579,-2.904 2.029,-2.904c5.809,-0 36.292,0.583 41.229,1.162c14.513,1.742 17.413,5.225 19.45,10.454c1.45,3.483 1.742,8.417 1.742,10.45c0,2.613 0.579,4.067 2.608,4.067c2.038,-0 2.617,-1.746 2.909,-3.196c0.579,-3.483 1.158,-16.258 1.45,-19.158c0.87,-13.359 2.325,-16.842 2.325,-18.871c-0,-1.454 -0.296,-2.617 -1.746,-2.617c-1.45,0 -3.192,0.871 -4.646,1.163c-2.321,0.579 -6.967,1.158 -12.483,1.741c-5.513,0.292 -63.292,0.292 -72.58,0.292c-4.066,0 -10.741,-0.292 -18.291,-0.579c-7.254,-0 -15.679,-0.296 -23.517,-0.296c-4.354,0 -6.383,0.583 -6.383,2.617c-0,2.029 1.737,2.612 4.933,2.612c4.063,0 9,0.288 11.325,0.871c9.579,2.033 11.904,6.679 12.483,16.55c0.58,9.287 0.58,17.417 0.58,61.546l-0,51.096c-0,26.712 -0,49.65 -1.455,61.841c-1.158,8.417 -2.612,14.805 -8.416,15.967c-2.613,0.579 -6.096,1.158 -10.454,1.158c-3.48,0 -4.642,0.871 -4.642,2.325c-0,2.034 2.029,2.904 5.808,2.904c5.805,0 13.354,-0.583 20.03,-0.583c6.966,-0.287 13.354,-0.287 16.545,-0.287c8.713,-0 17.709,0.287 30.196,0.87c12.484,0.288 28.45,0.867 50.225,0.867c11.033,0 13.646,0 15.679,-7.546c1.45,-5.808 3.775,-25.545 3.775,-32.225c0,-2.904 0,-5.225 -2.325,-5.225Z" style="fill:#0d56a3;fill-rule:nonzero;"/><path d="M1586.08,574.95c-5.229,3.775 -9.004,4.938 -20.616,4.938c-7.259,-0 -15.967,-0.875 -22.063,-2.905c-2.037,-0.875 -2.616,-2.033 -2.616,-5.225l-0,-88.258c-0,-2.325 0.579,-3.487 2.616,-4.067c2.9,-0.87 8.125,-1.158 15.384,-1.158c17.129,0 44.42,11.9 44.42,53.125c0,23.808 -8.421,37.162 -17.125,43.55Zm253.163,102.483c1.454,-5.808 3.779,-25.545 3.779,-32.225c-0,-2.904 -0,-5.225 -2.325,-5.225c-2.033,0 -2.613,1.159 -3.192,4.355c-2.037,11.904 -5.516,17.999 -13.066,21.483c-7.55,3.483 -19.746,3.483 -27.292,3.483c-29.612,0 -34.254,-4.354 -34.838,-24.387c-0.287,-8.417 0,-35.13 0,-45l0,-22.934c0,-1.741 0.292,-2.904 1.742,-2.904c6.967,0 35.713,0.292 41.229,0.871c10.738,1.158 14.805,5.517 16.255,11.325c0.87,3.771 0.87,7.546 1.158,10.45c-0,1.45 0.583,2.613 2.617,2.613c2.612,-0 2.612,-3.196 2.612,-5.517c-0,-2.034 0.871,-13.646 1.158,-19.45c1.167,-14.808 2.325,-19.454 2.325,-21.196c0,-1.742 -0.866,-2.321 -2.033,-2.321c-1.45,0 -2.612,1.45 -4.642,3.771c-2.616,2.904 -6.966,3.779 -13.937,4.358c-6.679,0.58 -40.063,0.58 -46.45,0.58c-1.742,-0 -2.034,-1.159 -2.034,-3.192l0,-73.454c0,-2.03 0.584,-2.904 2.034,-2.904c5.804,-0 36.292,0.583 41.225,1.162c14.517,1.742 17.416,5.225 19.454,10.454c1.45,3.483 1.738,8.417 1.738,10.45c-0,2.613 0.583,4.067 2.612,4.067c2.033,-0 2.617,-1.746 2.904,-3.196c0.583,-3.483 1.163,-16.258 1.45,-19.158c0.871,-13.359 2.321,-16.842 2.321,-18.871c0,-1.454 -0.287,-2.617 -1.738,-2.617c-1.45,0 -3.191,0.871 -4.645,1.163c-2.321,0.579 -6.971,1.158 -12.488,1.741c-5.508,0.292 -63.287,0.292 -72.575,0.292c-4.066,0 -10.741,-0.292 -18.291,-0.579c-7.259,-0 -15.68,-0.296 -23.517,-0.296c-4.354,0 -6.388,0.583 -6.388,2.617c0,2.029 1.742,2.612 4.938,2.612c4.062,0 8.996,0.288 11.325,0.871c9.575,2.033 11.896,6.679 12.483,16.55c0.579,9.287 0.579,17.417 0.579,61.546l0,51.096c0,26.712 0,49.65 -1.454,61.841c-1.162,8.417 -2.612,14.805 -8.421,15.967c-2.608,0.579 -6.096,1.158 -10.45,1.158c-0.612,0 -1.071,0.059 -1.545,0.113c-0.338,-0.054 -0.667,-0.113 -1.075,-0.113c-2.321,0 -4.934,-0.287 -8.13,-0.87c-4.354,-0.871 -16.258,-2.901 -32.512,-19.742c-17.133,-18 -37.163,-43.838 -63,-76.354c29.321,-23.805 38.321,-43.546 38.321,-65.034c-0,-19.45 -11.613,-34.258 -19.742,-39.775c-15.679,-10.737 -35.129,-12.483 -53.421,-12.483c-8.996,0 -31.062,0.875 -40.937,0.875c-6.096,0 -24.388,-0.875 -39.771,-0.875c-4.359,0 -6.388,0.583 -6.388,2.617c0,2.029 1.742,2.612 4.938,2.612c4.062,0 8.996,0.288 11.321,0.871c9.579,2.033 11.9,6.679 12.487,16.55c0.579,9.287 0.579,17.417 0.579,61.546l0,51.096c0,26.712 0,49.65 -1.454,61.841c-1.162,8.417 -2.612,14.805 -8.421,15.967c-2.608,0.579 -6.096,1.158 -10.45,1.158c-3.483,0 -4.641,0.871 -4.641,2.325c-0,2.034 2.029,2.904 5.804,2.904c11.608,0 29.9,-0.87 35.416,-0.87c4.359,-0 25.838,0.87 42.68,0.87c3.775,0 5.804,-0.87 5.804,-2.904c-0,-1.454 -1.159,-2.325 -3.479,-2.325c-3.488,0 -9.875,-0.579 -14.229,-1.158c-8.709,-1.162 -10.451,-7.55 -11.326,-15.967c-1.449,-12.191 -1.449,-35.129 -1.449,-62.129l-0,-4.067c-0,-1.741 0.87,-2.32 2.324,-2.32l25.259,0.579c2.029,-0 3.771,0.292 5.225,2.033c3.775,4.354 17.129,24.096 28.742,40.063c16.258,22.354 27.291,36 39.774,42.679c7.551,4.062 14.805,5.516 31.067,5.516l27.579,0c1.167,0 2.1,-0.108 2.921,-0.283c0.817,0.171 1.746,0.283 2.892,0.283c5.808,0 13.354,-0.583 20.033,-0.583c6.967,-0.287 13.354,-0.287 16.55,-0.287c8.708,-0 17.704,0.287 30.188,0.87c12.483,0.288 28.454,0.867 50.225,0.867c11.033,0 13.65,0 15.679,-7.546Z" style="fill:#0d56a3;fill-rule:nonzero;"/><path d="M1888.31,469.854c3.487,0 7.258,0.288 10.454,1.158c6.387,1.455 9.287,6.392 9.87,16.263c0.58,9.287 0.58,17.417 0.58,61.546l-0,51.096c-0,28.162 -0,51.1 -1.454,63.291c-0.871,8.417 -2.609,13.354 -8.417,14.517c-2.613,0.579 -6.096,1.158 -10.454,1.158c-3.48,0 -4.642,0.871 -4.642,2.325c0,2.034 2.033,2.904 5.808,2.904c11.609,0 29.9,-0.87 36.58,-0.87c7.837,-0 26.129,0.87 45.291,0.87c3.188,0 5.517,-0.87 5.517,-2.904c-0,-1.454 -1.459,-2.325 -4.65,-2.325c-4.354,0 -10.742,-0.579 -14.804,-1.158c-8.713,-1.163 -10.742,-6.387 -11.613,-14.225c-1.162,-12.483 -1.162,-35.421 -1.162,-63.583l-0,-51.096c-0,-44.129 -0,-52.259 0.583,-61.546c0.579,-10.167 2.9,-15.1 10.738,-16.55c3.487,-0.583 5.808,-0.871 8.712,-0.871c2.9,0 4.642,-0.583 4.642,-2.904c-0,-1.742 -2.321,-2.325 -6.092,-2.325c-11.033,0 -28.162,0.875 -35.421,0.875c-8.421,0 -26.712,-0.875 -37.742,-0.875c-4.645,0 -6.966,0.583 -6.966,2.325c-0,2.321 1.741,2.904 4.642,2.904Z" style="fill:#0d56a3;fill-rule:nonzero;"/><path d="M2243.96,464.625c-14.23,0 -25.263,0.875 -28.45,0.875c-6.101,0 -20.034,-0.875 -35.134,-0.875c-4.35,0 -7.55,0.296 -7.55,2.617c0,1.741 1.163,2.612 4.646,2.612c4.067,0 11.037,0 15.387,1.742c6.971,2.904 9.584,8.417 9.875,26.129l2.901,130.354l-1.45,0c-4.938,-4.646 -44.13,-46.454 -63.871,-66.192c-42.388,-42.1 -86.517,-88.549 -90,-92.324c-4.938,-5.225 -7.55,-9 -10.738,-9c-2.908,-0 -3.779,4.062 -3.779,9.87l-2.608,171c-0.296,25.259 -1.459,33.679 -9.005,36c-4.066,1.163 -9.287,1.45 -13.062,1.45c-2.908,0 -4.646,0.579 -4.646,2.325c0,2.613 2.613,2.904 6.384,2.904c15.099,0 28.745,-0.87 31.358,-0.87c5.517,-0 17.129,0.87 36,0.87c4.067,0 6.675,-0.583 6.675,-2.904c-0,-1.746 -1.738,-2.325 -4.934,-2.325c-4.645,0 -10.158,-0.287 -15.095,-2.029c-5.809,-2.033 -9.584,-9.583 -10.163,-32.225l-3.192,-121.067l0.871,0c5.225,5.517 37.45,40.938 69.096,72.292c30.188,29.9 67.354,67.934 85.646,85.354c3.192,3.192 6.675,6.388 9.871,6.388c2.612,-0 3.771,-2.617 3.771,-9l3.196,-183.196c0.291,-16.258 2.612,-22.354 10.741,-24.675c3.484,-0.871 5.804,-0.871 8.713,-0.871c3.479,0 5.225,-0.871 5.225,-2.612c-0,-2.321 -2.905,-2.617 -6.679,-2.617Z" style="fill:#0d56a3;fill-rule:nonzero;"/><path d="M431.867,856.742l-0,-22.975l-406.755,11.487l406.755,11.488Z" style="fill:#929497;fill-rule:nonzero;"/><path d="M1818.78,856.742l406.754,-11.488l-406.754,-11.487l0,22.975Z" style="fill:#929497;fill-rule:nonzero;"/><path d="M653.662,914.3c-2.879,0 -7.099,-0.383 -9.783,-0.767c-5.754,-0.766 -6.904,-4.983 -7.479,-10.354c-0.958,-8.246 -0.958,-23.4 -0.958,-41.046l-0,-33.758c-0,-29.154 -0,-34.525 0.383,-40.663c0.383,-6.712 1.917,-9.97 7.096,-10.929c2.3,-0.383 4.025,-0.575 5.562,-0.575c2.3,0 3.45,-0.387 3.45,-1.729c0,-1.342 -1.341,-1.725 -4.025,-1.725c-7.483,0 -19.566,0.575 -24.166,0.575c-5.179,0 -17.263,-0.575 -27.621,-0.575c-2.688,0 -4.029,0.383 -4.029,1.725c-0,1.342 1.154,1.729 3.262,1.729c2.684,0 5.946,0.192 7.479,0.575c6.33,1.342 7.867,4.409 8.25,10.929c0.384,6.138 0.384,11.509 0.384,40.663l-0,4.029c-0,0.959 -0.575,1.342 -1.154,1.342l-73.267,-0c-0.575,-0 -1.15,-0.383 -1.15,-1.342l-0,-4.029c-0,-29.154 -0,-34.525 0.383,-40.663c0.379,-6.712 1.917,-9.97 7.096,-10.929c2.304,-0.383 4.029,-0.575 5.562,-0.575c2.305,0 3.455,-0.387 3.455,-1.729c-0,-1.342 -1.346,-1.725 -4.03,-1.725c-7.479,0 -19.562,0.575 -24.166,0.575c-5.179,0 -17.263,-0.575 -27.621,-0.575c-2.683,0 -4.025,0.383 -4.025,1.725c-0,1.342 1.15,1.729 3.258,1.729c2.688,0 5.946,0.192 7.48,0.575c6.329,1.342 7.866,4.409 8.249,10.929c0.384,6.138 0.384,11.509 0.384,40.663l-0,33.758c-0,17.646 -0,32.8 -0.959,40.854c-0.766,5.563 -1.729,9.78 -5.562,10.546c-1.729,0.384 -4.029,0.767 -6.904,0.767c-2.304,0 -3.071,0.575 -3.071,1.537c0,1.342 1.342,1.917 3.837,1.917c7.671,0 19.755,-0.575 24.167,-0.575c5.371,0 17.454,0.575 29.921,0.575c2.3,0 3.838,-0.575 3.838,-1.917c-0,-0.962 -0.963,-1.537 -3.071,-1.537c-2.875,0 -7.096,-0.383 -9.784,-0.767c-5.754,-0.766 -6.904,-4.983 -7.479,-10.354c-0.958,-8.246 -0.958,-23.4 -0.958,-41.046l-0,-16.879c-0,-0.958 0.575,-1.15 1.15,-1.15l73.267,0c0.579,0 1.154,0.384 1.154,1.15l-0,16.879c-0,17.646 -0,32.8 -0.959,40.854c-0.77,5.563 -1.729,9.78 -5.562,10.546c-1.729,0.384 -4.029,0.767 -6.908,0.767c-2.3,0 -3.067,0.575 -3.067,1.537c-0,1.342 1.342,1.917 4.029,1.917c7.479,0 19.563,-0.575 23.975,-0.575c5.367,0 17.45,0.575 29.917,0.575c2.304,0 3.837,-0.575 3.837,-1.917c0,-0.962 -0.958,-1.537 -3.067,-1.537Z" style="fill:#929497;fill-rule:nonzero;"/><path d="M765.104,810.921c0.192,-0.767 0.575,-1.725 1.15,-1.725c0.575,-0 0.767,0.958 0.958,1.725l17.263,47.183c0.192,0.575 0,1.15 -0.958,1.15l-35.292,0c-0.767,0 -0.958,-0.575 -0.767,-1.341l17.646,-46.992Zm-25.508,106.833c2.108,0 3.258,-0.383 3.258,-1.917c0,-1.154 -0.575,-1.537 -2.875,-1.537l-2.879,0c-5.946,0 -7.671,-2.492 -7.671,-5.942c0,-2.304 0.958,-6.908 2.875,-11.7l10.358,-26.279c0.384,-1.15 0.767,-1.533 1.725,-1.533l42.771,-0c0.959,-0 1.538,0.383 1.921,1.342l15.342,39.512c0.962,2.3 -0.384,4.025 -1.725,4.408c-1.917,0.192 -2.683,0.575 -2.683,1.729c-0,1.342 2.299,1.342 5.754,1.534c15.341,0.383 29.341,0.383 36.25,0.383c7.096,0 8.821,-0.383 8.821,-1.917c-0,-1.345 -0.959,-1.537 -2.492,-1.537c-2.304,0 -5.179,-0.192 -8.058,-0.767c-4.025,-0.958 -9.588,-3.641 -16.875,-20.904c-12.275,-29.154 -42.967,-105.875 -47.571,-116.421c-1.917,-4.416 -3.067,-6.141 -4.792,-6.141c-1.921,-0 -3.071,2.112 -5.371,7.675l-48.142,118.916c-3.837,9.588 -7.483,16.109 -16.304,17.259c-1.533,0.191 -4.22,0.383 -5.945,0.383c-1.534,0 -2.3,0.383 -2.3,1.537c-0,1.534 1.15,1.917 3.641,1.917c9.975,0 20.525,-0.575 22.634,-0.575c5.945,0 14.195,0.575 20.333,0.575Z" style="fill:#929497;fill-rule:nonzero;"/><path d="M961.896,845.638c-3.45,2.491 -5.946,3.258 -13.617,3.258c-4.796,-0 -10.55,-0.575 -14.575,-1.917c-1.342,-0.575 -1.729,-1.341 -1.729,-3.45l-0,-58.308c-0,-1.538 0.387,-2.304 1.729,-2.688c1.917,-0.575 5.371,-0.766 10.163,-0.766c11.316,-0 29.345,7.866 29.345,35.1c0,15.729 -5.562,24.55 -11.316,28.771Zm75.762,72.116c2.3,0 3.646,-0.383 3.646,-1.917c0,-0.962 -0.771,-1.537 -2.304,-1.537c-1.533,0 -3.258,-0.192 -5.371,-0.575c-2.875,-0.575 -10.737,-1.917 -21.479,-13.042c-11.317,-11.891 -24.55,-28.958 -41.621,-50.441c19.371,-15.729 25.317,-28.771 25.317,-42.963c-0,-12.85 -7.671,-22.633 -13.042,-26.279c-10.358,-7.096 -23.208,-8.246 -35.292,-8.246c-5.945,0 -20.52,0.575 -27.041,0.575c-4.029,0 -16.113,-0.575 -26.279,-0.575c-2.875,0 -4.221,0.383 -4.221,1.725c-0,1.342 1.15,1.729 3.262,1.729c2.684,0 5.946,0.192 7.48,0.575c6.329,1.342 7.866,4.409 8.245,10.929c0.384,6.138 0.384,11.509 0.384,40.663l-0,33.758c-0,17.646 -0,32.8 -0.954,40.854c-0.771,5.563 -1.73,9.78 -5.567,10.546c-1.725,0.384 -4.025,0.767 -6.904,0.767c-2.3,0 -3.067,0.575 -3.067,1.537c-0,1.342 1.342,1.917 3.833,1.917c7.675,0 19.759,-0.575 23.404,-0.575c2.876,0 17.067,0.575 28.192,0.575c2.496,0 3.838,-0.575 3.838,-1.917c-0,-0.962 -0.767,-1.537 -2.304,-1.537c-2.301,0 -6.521,-0.383 -9.396,-0.767c-5.754,-0.766 -6.905,-4.983 -7.48,-10.546c-0.962,-8.054 -0.962,-23.208 -0.962,-41.045l-0,-2.688c-0,-1.15 0.579,-1.533 1.537,-1.533l16.684,0.383c1.346,0 2.496,0.192 3.454,1.342c2.492,2.879 11.317,15.921 18.987,26.471c10.742,14.766 18.03,23.783 26.28,28.191c4.987,2.688 9.779,3.646 20.52,3.646l18.221,0Z" style="fill:#929497;fill-rule:nonzero;"/><path d="M1158.88,784.067c17.071,0.387 22.25,5.758 22.634,10.741l0.191,2.113c0.192,2.875 0.575,3.837 2.109,3.837c1.15,0 1.533,-1.154 1.725,-3.07c-0,-4.988 0.579,-18.221 0.579,-22.251c-0,-2.875 -0.192,-4.029 -1.538,-4.029c-0.766,0 -2.3,0.384 -5.179,0.963c-2.875,0.383 -7.096,0.958 -13.233,0.958l-75.954,0c-6.33,0 -13.617,-0.383 -19.179,-0.958c-4.796,-0.384 -6.713,-2.304 -8.246,-2.304c-1.15,-0 -1.725,1.15 -2.305,3.645c-0.383,1.534 -4.025,18.988 -4.025,22.055c0,2.112 0.384,3.07 1.725,3.07c1.15,0 1.725,-0.766 2.109,-2.299c0.383,-1.538 1.346,-3.838 3.262,-6.713c2.875,-4.221 7.48,-5.179 18.604,-5.562l28.58,-0.771l-0,78.641c-0,17.646 -0,32.8 -0.959,40.854c-0.575,5.563 -1.725,9.78 -5.562,10.546c-1.725,0.384 -4.029,0.767 -6.908,0.767c-2.3,0 -3.067,0.575 -3.067,1.537c-0,1.342 1.342,1.917 3.837,1.917c7.671,0 19.755,-0.575 24.167,-0.575c5.371,0 17.454,0.575 30.112,0.575c2.109,0 3.642,-0.575 3.642,-1.917c0,-0.962 -0.958,-1.537 -3.067,-1.537c-2.879,0 -7.095,-0.383 -9.783,-0.767c-5.754,-0.766 -6.904,-4.983 -7.479,-10.354c-0.958,-8.246 -0.958,-23.4 -0.958,-41.046l-0,-78.641l24.166,0.575Z" style="fill:#929497;fill-rule:nonzero;"/><path d="M1431.63,888.6c-1.341,0 -1.725,0.767 -2.108,2.879c-1.346,7.863 -3.646,11.892 -8.629,14.192c-4.992,2.304 -13.046,2.304 -18.034,2.304c-19.562,0 -22.629,-2.879 -23.012,-16.113c-0.192,-5.562 -0,-23.208 -0,-29.729l-0,-15.154c-0,-1.15 0.192,-1.916 1.15,-1.916c4.604,-0 23.592,0.191 27.237,0.575c7.092,0.766 9.779,3.641 10.738,7.479c0.575,2.496 0.575,4.987 0.766,6.904c0,0.958 0.384,1.725 1.73,1.725c1.725,-0 1.725,-2.108 1.725,-3.642c-0,-1.341 0.575,-9.016 0.766,-12.85c0.767,-9.783 1.534,-12.85 1.534,-14c-0,-1.15 -0.575,-1.533 -1.342,-1.533c-0.958,-0 -1.725,0.958 -3.067,2.492c-1.729,1.916 -4.604,2.491 -9.208,2.875c-4.413,0.383 -26.467,0.383 -30.688,0.383c-1.149,-0 -1.341,-0.767 -1.341,-2.108l-0,-48.526c-0,-1.345 0.383,-1.92 1.341,-1.92c3.838,-0 23.976,0.383 27.238,0.766c9.587,1.154 11.504,3.454 12.85,6.909c0.958,2.3 1.15,5.558 1.15,6.904c-0,1.725 0.383,2.683 1.725,2.683c1.342,0 1.725,-1.15 1.917,-2.108c0.383,-2.304 0.766,-10.742 0.958,-12.659c0.575,-8.82 1.538,-11.125 1.538,-12.466c-0,-0.959 -0.196,-1.729 -1.155,-1.729c-0.958,-0 -2.108,0.575 -3.066,0.77c-1.534,0.384 -4.605,0.767 -8.25,1.15c-3.642,0.192 -41.809,0.192 -47.946,0.192c-2.688,0 -7.1,-0.192 -12.084,-0.383c-4.795,-0 -10.358,-0.192 -15.537,-0.192c-2.879,0 -4.221,0.383 -4.221,1.725c0,1.342 1.15,1.729 3.263,1.729c2.683,0 5.946,0.192 7.479,0.575c6.329,1.342 7.866,4.409 8.25,10.929c0.383,6.138 0.383,11.509 0.383,40.663l0,33.758c0,17.646 0,32.8 -0.962,40.854c-0.767,5.563 -1.725,9.78 -5.563,10.546c-1.725,0.384 -4.025,0.767 -6.904,0.767c-2.3,0 -3.067,0.575 -3.067,1.537c0,1.342 1.342,1.917 3.838,1.917c3.833,0 8.821,-0.383 13.233,-0.383c4.6,-0.192 8.821,-0.192 10.929,-0.192c5.759,0 11.7,0.192 19.95,0.575c8.246,0.192 18.796,0.575 33.179,0.575c7.288,0 9.017,0 10.359,-4.987c0.958,-3.834 2.496,-16.875 2.496,-21.288c-0,-1.921 -0,-3.454 -1.538,-3.454Z" style="fill:#929497;fill-rule:nonzero;"/><path d="M1507.78,893.779c-8.246,0 -11.7,6.904 -11.7,11.7c0,5.371 3.454,11.7 11.509,11.7c7.287,0 11.891,-5.562 11.891,-12.275c0,-6.712 -5.179,-11.125 -11.7,-11.125Z" style="fill:#929497;fill-rule:nonzero;"/><path d="M1715.89,772.754c-5.754,0 -14.766,0.575 -18.029,0.575c-2.491,0 -10.55,-0.575 -20.141,-0.575c-3.642,0 -5.367,0.383 -5.367,1.917c0,1.341 1.533,1.537 3.258,1.537c2.492,0 5.371,0.192 7.675,0.959c1.725,0.575 2.492,2.108 2.492,3.641c-0,1.725 -0.767,4.604 -1.725,7.096c-4.604,12.658 -29.537,74.421 -37.783,95.521l-0.771,0l-32.992,-87.083c-2.683,-6.9 -4.408,-12.275 -4.408,-14.767c-0,-1.725 0.575,-3.067 1.917,-4.025c1.533,-1.15 4.412,-1.342 7.483,-1.342c1.725,0 2.875,-0.387 2.875,-1.729c-0,-1.342 -2.109,-1.725 -4.413,-1.725c-9.587,0 -18.795,0.575 -23.591,0.575c-6.713,0 -17.646,-0.575 -27.809,-0.575c-2.879,0 -4.987,0.192 -4.987,1.725c-0,1.15 0.575,1.729 2.3,1.729c1.533,0 4.604,0 7.483,0.767c6.9,1.917 10.163,4.025 14.575,14.575l48.334,117.192c3.645,9.012 4.795,11.7 7.287,11.7c2.687,-0 3.837,-3.071 8.825,-14.196c4.217,-9.588 13.233,-30.496 25.508,-58.5c10.359,-23.592 15.534,-33.946 23.017,-51.979c5.179,-12.275 8.054,-15.534 10.55,-17.259c3.45,-2.3 7.479,-2.3 9.396,-2.3c1.916,0 3.071,-0.387 3.071,-1.729c-0,-1.342 -1.538,-1.725 -4.03,-1.725Z" style="fill:#929497;fill-rule:nonzero;"/><path d="M1746.39,893.779c-8.246,0 -11.7,6.904 -11.7,11.7c-0,5.371 3.454,11.7 11.508,11.7c7.292,0 11.892,-5.562 11.892,-12.275c-0,-6.712 -5.179,-11.125 -11.7,-11.125Z" style="fill:#929497;fill-rule:nonzero;"/><path d="M1288.23,993.858l-90.337,0c17.566,26.725 27.162,58.763 25.766,90.792c0.959,46.529 -13.954,95.708 -48.77,127.963c-16.421,14.82 -35.684,26.854 -57.096,32.891c-7.408,-63.362 -18.254,-126.266 -25.071,-189.675c-2.792,-20.683 -6.05,-41.312 -9.054,-61.971l-29.625,0c2.837,21.054 5.4,42.146 7.937,63.25c9.334,66.109 17.746,132.309 26.213,198.555c-37.513,6.587 -76.033,8.233 -113.867,4.208c-35.275,-6.221 -68.671,-21.225 -98.5,-40.854c-64.508,-42.225 -107.375,-116.48 -109.662,-193.796c-0.171,-10.504 0.375,-20.971 1.491,-31.363l-60.3,0c8.317,60.896 32.084,119.663 70.154,168.155c28.596,35.595 64.417,65.058 103.809,87.979c63.133,37.237 139.579,51.65 211.633,36.55c6.542,65.562 19.859,130.296 23.7,196.129c-0.275,37.787 -6.725,77.408 -29.741,108.562c-28.909,39.805 -82.346,55.175 -129.605,48.45c-26.487,-4.758 -55.308,-12.629 -72.191,-35.32c29.829,-0.821 63.041,-6.863 83.537,-30.605c20.496,-23.058 21.55,-56.683 16.104,-85.504c-7.32,-33.858 -34.816,-63.275 -69.083,-70.316c-43.004,-10.846 -88.571,16.375 -106.183,55.766c-26.075,59.063 -2.105,132.354 48.725,170.279c45.929,34.313 108.471,43.509 163.141,27.68c45.746,-10.159 88.479,-39.025 109.342,-81.755c22.371,-44.333 22.554,-95.8 14.454,-143.746c-9.012,-55.266 -14.271,-111.033 -22.692,-166.391c48.496,-16.421 93.742,-44.925 124.396,-86.558c34.263,-45.109 48.355,-103.163 45.746,-159.205c-0.558,-13.362 -2.025,-26.82 -4.371,-40.15Z" style="fill:#eb2027;fill-rule:nonzero;"/><path d="M952.142,993.858l-69.542,0c-1.342,10.417 -1.904,20.946 -1.554,31.5c3.979,55.134 29.921,112.73 80.012,140.363c14.825,6.771 31.617,15.554 48.267,10.796c2.425,-10.98 -9.971,-14.138 -16.925,-19.125c-39.254,-20.359 -60.254,-66.425 -57.325,-109.521c1.646,-19.125 7.712,-37.496 17.067,-54.013Z" style="fill:#eb2027;fill-rule:nonzero;"/><path d="M1166.69,156.046c-0.375,-0.308 -0.721,-0.646 -1.109,-0.934c0.384,0.284 0.734,0.63 1.109,0.934Zm-166.742,148.837c17.7,-43.875 39.175,-89.658 72.337,-124.129c24.121,-25.079 75.159,-53.508 102.359,-15.496c-1.492,-2.595 -3.358,-4.971 -5.488,-7.075c17.559,16.909 22.959,52.9 26.93,74.009c9.125,48.529 12.116,98.262 13.862,147.525c6.592,-34.588 10.067,-69.755 12.475,-104.875c2.975,-57.275 -5.533,-114.509 -20.767,-169.638c-11.483,-35.133 -26.079,-70.591 -51.975,-97.675c-11.162,-11.254 -28.637,-7.091 -40.854,-0.046c-35.637,20.13 -60.846,54.442 -78.779,90.492c-46.458,85.696 -63.217,185.058 -55.921,281.742c-0.462,-6.125 18.746,-57.288 25.821,-74.834Z" style="fill:#eb2027;fill-rule:nonzero;"/><path d="M1199.94,467.242c0,2.029 1.742,2.612 4.355,2.612c4.645,0 9,0.288 11.325,2.033c2.029,1.451 2.9,3.484 2.9,6.096c-0,3.775 -2.613,11.904 -6.675,22.354l-49.938,131.809l-1.158,-0c-15.504,-39.659 -74.496,-154.892 -78.213,-166.65c-0.058,-0.188 -0.145,-0.359 -0.204,-0.55c-7.987,-20.85 1.425,-42.596 5.104,-63.242c2.317,-19.204 -12.945,-34.308 -21.396,-50.142c12.113,8.834 21.571,20.509 27.65,34.18c4.646,-14.209 7.255,-29.129 9.051,-43.938c0.604,-20.433 -13.138,-37.208 -21.984,-54.542c11.713,11.838 21.6,25.463 28.238,40.75c6.229,-25.487 6.708,-51.745 7.446,-77.833c3.45,23.367 3.629,47.171 0.554,70.6c8.97,-9.233 18.983,-17.596 30.6,-23.237c-11.646,10.308 -25.529,19.546 -31.613,34.537c-7.075,17.663 -10.658,36.409 -15.258,54.796c9.754,-5.996 20.004,-11.242 31.041,-14.333c-22.995,12.004 -43.016,34.237 -44.295,60.633c-0.375,4.563 -1.03,10.787 1.241,15.033c4.175,7.784 22.83,-2.346 27.725,-5.712c4.517,-3.108 8.488,-7.084 11.342,-11.783c0.775,-1.275 6.817,-15.196 4.712,-15.746c-8.454,-2.213 -16.504,3.141 -24.729,4.554c3.188,-25.158 34.45,-23.675 49.729,-37.738c4.284,-7.4 9.159,-14.362 14.35,-21.133c3.08,-4.792 -2.358,-9.304 -4.054,-13.508c-6.629,0.675 -14.362,-2.184 -20.22,2.133c-6.263,4.062 -12.68,7.846 -19.513,10.937c-0.271,-5.291 -3.721,-11.82 1.329,-15.92c12.021,-11.763 30.604,-16.155 39.529,-31.125c2.771,-3.692 -1.016,-7.571 -1.75,-11.234c6.267,-6.604 14.509,-12.891 15.555,-22.625c-1.288,-7.104 -8.605,-7.708 -14.434,-8.433c-4.383,-1.879 -8.862,-6.425 -13.962,-3.829c-7.15,6.254 -12.038,14.704 -19.259,20.971c-6.671,-12.517 3.5,-25.309 3.834,-38.159c1.291,-7.833 -3.509,-14.371 -9.138,-19.175c-3.125,-8.4 -4.417,-21.133 -15.192,-22.946c-8.07,-2.375 -13.054,4.967 -17.512,10.217c-8.054,1.154 -16.1,7.121 -14.304,16.267c3.171,14.854 13.496,27.279 15.733,42.446c-1.3,3.533 -3.937,5.433 -7.854,5.75c-7.142,-9.055 -4.662,-24.25 -15.925,-29.963c-7.35,-4.1 -16.437,-15.029 -24.579,-6.208c-6.888,10.496 3.008,22.396 5.887,32.762c-2.379,0.854 -7.075,2.617 -9.45,3.471c2.105,24.413 31.267,32.017 37.646,54.379c0.838,4.742 -3.279,9.375 -8.237,7.846c-8.017,-6.562 -12.984,-15.854 -19.204,-23.975c-7.655,-1.341 -15.205,-3.4 -22.976,-4.2c-7.837,7.858 -0.512,18.425 3.325,26.213c-1.47,0.77 -4.441,2.308 -5.912,3.079c5.196,21.858 30.608,27.625 40.788,46.112c0.812,3.721 0.45,7.546 0.47,11.313c-10.979,-1.667 -18.854,-10.288 -29.054,-14.009c-2.017,7.767 -5.579,16.559 -0.708,24.063c7.304,16.896 27.9,24.492 31.821,43.179c0.75,2.929 1.433,5.884 2.1,8.846c3.12,13.904 28.104,80.433 42.321,112.817c18.579,42.387 32.224,74.033 38.612,88.55c7.55,16.837 9.292,21.483 13.354,21.483c3.775,0 5.517,-4.063 11.034,-17.708l73.162,-177.388c6.675,-15.971 11.612,-19.162 22.063,-22.067c4.354,-1.158 8.999,-1.158 11.324,-1.158c2.613,0 3.484,-0.871 3.484,-2.612c-0,-2.321 -3.196,-2.617 -7.55,-2.617c-15.388,0 -31.938,0.875 -42.096,0.875c-7.258,0 -21.196,-0.875 -35.708,-0.875c-3.488,0 -6.68,0.583 -6.68,2.617Z" style="fill:#0d56a3;fill-rule:nonzero;"/></g></svg>